<?xml version="1.0" encoding="UTF-8"?>
<svg id="Layer_1" data-name="Layer 1" xmlns="http://www.w3.org/2000/svg" viewBox="0 0 385.51 405.22">
  <defs>
    <style>
      .cls-1 {
        fill: #34bebd;
      }

      .cls-2 {
        fill: #2093c0;
      }
    </style>
  </defs>
  <path class="cls-1" d="M111.17,405.22s0-3.27,0-3.27c0-140.59,112.76-254.71,252.8-256.99-21.8,.82-120.31,9.77-142.52,103.83-.75,3.17-1.14,6.42-1.14,9.68v146.76s-109.13,0-109.13,0Z"/>
  <path class="cls-2" d="M237.57,260.65c19.73-98.99,121.47-108.25,143.67-109.09,.36,0,.68-.04,1-.04,2.12-.04,3.27-.04,3.27-.04v109.17H237.57Z"/>
  <path class="cls-1" d="M267.81,0V3.27c.22,140.59-112.37,254.89-252.4,257.38,21.58-.85,118.34-9.78,141.68-101.26,1.28-5.01,1.81-10.17,1.81-15.34L158.68,.17l109.13-.17Z"/>
  <path class="cls-2" d="M147.94,137.63C128.37,236.64,26.64,246.06,4.44,246.94c-.36,0-.68,.04-1,.04-2.12,.04-3.27,.05-3.27,.05l-.17-109.17,147.94-.23Z"/>
</svg>